<svg width="42" height="42" viewBox="0 0 42 42" fill="none" xmlns="http://www.w3.org/2000/svg">
<path d="M23.8 35H18.2" stroke="black" stroke-width="3"/>
<path fill-rule="evenodd" clip-rule="evenodd" d="M29.75 17.555V17.499C29.75 12.6673 25.8318 8.74902 21 8.74902C16.1683 8.74902 12.25 12.6673 12.25 17.499V17.555V21.881C12.25 22.448 11.9298 22.9643 11.424 23.218L10.5438 23.6573C9.44475 24.2085 8.75 25.332 8.75 26.5605C8.75 28.3525 10.2025 29.805 11.9945 29.805H30.0055C31.7975 29.805 33.25 28.3525 33.25 26.5605C33.25 25.332 32.5553 24.2085 31.4563 23.659L30.576 23.2198C30.0703 22.9643 29.75 22.448 29.75 21.881V17.555Z" stroke="black" stroke-width="3" stroke-linecap="round"/>
<path d="M33.1643 10.585C31.9183 8.39746 30.1018 6.58096 27.9143 5.33496" stroke="black" stroke-width="3"/>
<path d="M8.83569 10.585C10.0817 8.39746 11.8982 6.58096 14.0857 5.33496" stroke="black" stroke-width="3"/>
</svg>
