<svg xmlns="http://www.w3.org/2000/svg" xmlns:xlink="http://www.w3.org/1999/xlink" data-name="Calque 1" width="1200" height="1200" viewBox="0 0 400 400">
  <defs>
    <linearGradient id="Dégradé_sans_nom" data-name="Dégradé sans nom" x1="260" y1="30" x2="260" y2="250" gradientUnits="userSpaceOnUse">
      <stop offset="0" stop-color="#fff"/>
      <stop offset="1" stop-color="#000"/>
    </linearGradient>
    <linearGradient id="Dégradé_sans_nom_2" data-name="Dégradé sans nom 2" x1="182.259" y1="62.25" x2="337.751" y2="217.741" gradientUnits="userSpaceOnUse">
      <stop offset="0" stop-color="#fff"/>
      <stop offset="1" stop-color="#000"/>
    </linearGradient>
    <linearGradient id="Dégradé_sans_nom-2" data-name="Dégradé sans nom" x1="140" y1="150" x2="140" y2="370" xlink:href="#Dégradé_sans_nom"/>
    <linearGradient id="Dégradé_sans_nom_4" data-name="Dégradé sans nom 4" x1="62.259" y1="182.25" x2="217.751" y2="337.741" gradientUnits="userSpaceOnUse">
      <stop offset="0" stop-color="#fff"/>
      <stop offset="1" stop-color="#000"/>
    </linearGradient>
  </defs>
  <g>
    <path d="M370,140c0-60.667-49.331-110-110-110s-110,49.333-110,110,49.358,110,110,110,110-49.358,110-110Z" fill="red" stroke-width="0"/>
    <path d="M326,52.047c-18.395-13.837-41.254-22.047-66-22.047s-47.601,8.214-66,22.056v175.881c18.399,13.846,41.259,22.063,66,22.063s47.605-8.214,66-22.055V52.047Z" fill="#fff" stroke-width="0"/>
    <path d="M259.992,84.561l-8.97,16.711c-1.011,1.822-2.833,1.678-4.657.649l-6.477-3.374,4.818,25.681c1.029,4.709-2.238,4.709-3.844,2.67l-11.315-12.686-1.859,6.442c-.197.848-1.155,1.733-2.544,1.515l-14.329-2.996,3.772,13.68c.795,3.031,1.443,4.313-.811,5.106l-5.108,2.382,24.652,20.032c.992.776,1.462,2.131,1.118,3.358l-2.147,7.091c8.501-.974,16.098-2.454,24.58-3.356.758-.072,2.022,1.155,2.022,2.022l-1.136,25.951h4.114l-.649-25.879c0-.885,1.155-2.166,1.913-2.094,8.482.902,16.098,2.382,24.58,3.356l-2.149-7.091c-.36-1.227.128-2.582,1.101-3.358l24.67-20.032-5.108-2.382c-2.256-.793-1.624-2.075-.83-5.106l3.79-13.68-14.329,2.996c-1.408.218-2.347-.667-2.526-1.515l-1.878-6.442-11.315,12.686c-1.605,2.038-4.855,2.038-3.862-2.67l4.836-25.681-6.478,3.374c-1.841,1.029-3.645,1.173-4.674-.649l-8.968-16.711Z" fill="red" stroke-width="0"/>
    <path d="M260,250c-60.642,0-110-49.358-110-110s49.358-110,110-110,110,49.333,110,110-49.331,110-110,110Z" fill="url(#Dégradé_sans_nom)" opacity=".15" stroke-width="0"/>
    <path d="M260,36c57.346,0,104,46.654,104,104s-46.654,104-104,104-104-46.654-104-104,46.654-104,104-104M260,30c-60.642,0-110,49.333-110,110s49.358,110,110,110,110-49.358,110-110-49.331-110-110-110h0Z" fill="url(#Dégradé_sans_nom_2)" opacity=".15" stroke-width="0"/>
  </g>
  <path d="M265,260c0,69.036-55.964,125-125,125S15,329.036,15,260s55.964-125,125-125,125,55.964,125,125Z" fill="#fff" stroke-width="0"/>
  <g>
    <path d="M250,260c0,60.751-49.249,110-110,110s-110-49.249-110-110,49.249-110,110-110,110,49.249,110,110Z" fill="#b31942" stroke-width="0"/>
    <path d="M38.436,302.308h203.127c-2.469,5.92-5.436,11.58-8.857,16.923H47.293c-3.421-5.343-6.388-11.003-8.857-16.923ZM32.949,285.385h214.102c1.298-5.494,2.189-11.145,2.629-16.923H30.321c.44,5.778,1.331,11.429,2.629,16.923ZM81.362,353.077h117.276c7.587-4.79,14.549-10.479,20.734-16.923H60.629c6.184,6.444,13.146,12.133,20.734,16.923ZM60.629,183.846h158.743c-6.184-6.444-13.146-12.133-20.734-16.923h-117.276c-7.587,4.79-14.549,10.479-20.734,16.923ZM30.321,251.538h219.359c-.44-5.778-1.331-11.429-2.629-16.923H32.949c-1.298,5.494-2.189,11.145-2.629,16.923ZM38.436,217.692h203.127c-2.469-5.92-5.436-11.58-8.857-16.923H47.293c-3.421,5.343-6.388,11.003-8.857,16.923Z" fill="#fff" stroke-width="0"/>
    <path d="M30,260c0,2.847.108,5.669.321,8.462h109.679v-118.462c-60.751,0-110,49.249-110,110Z" fill="#0a3161" stroke-width="0"/>
    <path d="M126.077,155.653l1.555,4.74h5.011l-4.048,2.962,1.555,4.764-4.073-2.962-4.048,2.962,1.558-4.764-4.051-2.962h5.011l1.531-4.74ZM100.75,163.355l4.024-2.962h-4.987l-.815-2.419c-.565.222-1.16.444-1.728.691l-.565,1.728h-3.286c-.37.173-.716.346-1.061.494l3.382,2.469-1.16,3.579-.37,1.185,1.605-1.185,2.444-1.777,2.444,1.777,1.605,1.185-.37-1.185-1.16-3.579ZM124.547,184.091h-5.011l4.051,2.938-1.558,4.764,4.048-2.938,4.073,2.938-1.555-4.764,4.048-2.938h-5.011l-1.555-4.764-1.531,4.764ZM96.679,184.091h-5.014l4.073,2.938-1.555,4.764,4.048-2.938,4.048,2.938-1.555-4.764,4.048-2.938h-4.987l-1.555-4.764-1.553,4.764ZM68.831,184.091h-5.011l4.048,2.938-1.553,4.764,4.071-2.938,4.048,2.938-1.555-4.764,4.051-2.938h-5.014l-1.531-4.764-1.555,4.764ZM124.547,207.789h-5.011l4.051,2.938-1.558,4.764,4.048-2.938,4.073,2.938-1.555-4.764,4.048-2.938h-5.011l-1.555-4.764-1.531,4.764ZM96.679,207.789h-5.014l4.073,2.938-1.555,4.764,4.048-2.938,4.048,2.938-1.555-4.764,4.048-2.938h-4.987l-1.555-4.764-1.553,4.764ZM68.831,207.789h-5.011l4.048,2.938-1.553,4.764,4.071-2.938,4.048,2.938-1.555-4.764,4.051-2.938h-5.014l-1.531-4.764-1.555,4.764ZM49.057,207.789h-4.987l-.321-.963c-1.38,2.469-2.666,5.036-3.849,7.628l2.614-1.901,4.051,2.938-1.533-4.764,4.024-2.938ZM124.547,231.463h-5.011l4.051,2.962-1.558,4.74,4.048-2.938,4.073,2.938-1.555-4.74,4.048-2.962h-5.011l-1.555-4.764-1.531,4.764ZM96.679,231.463h-5.014l4.073,2.962-1.555,4.74,4.048-2.938,4.048,2.938-1.555-4.74,4.048-2.962h-4.987l-1.555-4.764-1.553,4.764ZM68.831,231.463h-5.011l4.048,2.962-1.553,4.74,4.071-2.938,4.048,2.938-1.555-4.74,4.051-2.962h-5.014l-1.531-4.764-1.555,4.764ZM40.961,231.463h-4.987l4.048,2.962-1.555,4.74,4.048-2.938,4.051,2.938-1.558-4.74,4.073-2.962h-5.011l-1.555-4.764-1.555,4.764ZM124.547,255.162h-5.011l4.051,2.938-1.558,4.764,4.048-2.938,4.073,2.938-1.555-4.764,4.048-2.938h-5.011l-1.555-4.764-1.531,4.764ZM96.679,255.162h-5.014l4.073,2.938-1.555,4.764,4.048-2.938,4.048,2.938-1.555-4.764,4.048-2.938h-4.987l-1.555-4.764-1.553,4.764ZM68.831,255.162h-5.011l4.048,2.938-1.553,4.764,4.071-2.938,4.048,2.938-1.555-4.764,4.051-2.938h-5.014l-1.531-4.764-1.555,4.764ZM40.961,255.162h-4.987l4.048,2.938-1.555,4.764,4.048-2.938,4.051,2.938-1.558-4.764,4.073-2.938h-5.011l-1.555-4.764-1.555,4.764ZM110.624,243.312h-5.011l4.048,2.938-1.555,4.764,4.048-2.938,4.048,2.938-1.531-4.764,4.048-2.938h-5.009l-1.558-4.764-1.531,4.764ZM82.754,243.312h-5.011l4.048,2.938-1.531,4.764,4.048-2.938,4.048,2.938-1.553-4.764,4.046-2.938h-5.011l-1.531-4.764-1.555,4.764ZM54.908,243.312h-5.011l4.048,2.938-1.555,4.764,4.051-2.938,4.046,2.938-1.531-4.764,4.048-2.938h-5.011l-1.553-4.764-1.533,4.764ZM35.135,243.312h-3.873c-.299,2.049-.57,4.098-.741,6.171l2.121,1.531-1.555-4.764,4.048-2.938ZM110.624,219.639h-5.011l4.048,2.938-1.555,4.764,4.048-2.962,4.048,2.962-1.531-4.764,4.048-2.938h-5.009l-1.558-4.764-1.531,4.764ZM82.754,219.639h-5.011l4.048,2.938-1.531,4.764,4.048-2.962,4.048,2.962-1.553-4.764,4.046-2.938h-5.011l-1.531-4.764-1.555,4.764ZM54.908,219.639h-5.011l4.048,2.938-1.555,4.764,4.051-2.962,4.046,2.962-1.531-4.764,4.048-2.938h-5.011l-1.553-4.764-1.533,4.764ZM110.624,195.94h-5.011l4.048,2.938-1.555,4.764,4.048-2.938,4.048,2.938-1.531-4.764,4.048-2.938h-5.009l-1.558-4.764-1.531,4.764ZM82.754,195.94h-5.011l4.048,2.938-1.531,4.764,4.048-2.938,4.048,2.938-1.553-4.764,4.046-2.938h-5.011l-1.531-4.764-1.555,4.764ZM58.956,198.878l4.048-2.938h-5.011l-1.553-4.764-1.558,4.764h-4.221c-.099.123-.197.247-.272.37l3.555,2.567-.617,1.901-.938,2.864,3.925-2.864.126-.074.121.074,3.95,2.864-.938-2.864-.617-1.901ZM110.624,172.242h-5.011l4.048,2.962-1.555,4.74,4.048-2.938,4.048,2.938-1.531-4.74,4.048-2.962h-5.009l-1.558-4.764-1.531,4.764ZM82.754,172.242h-5.011l4.048,2.962-1.531,4.74,4.048-2.938,4.048,2.938-1.553-4.74,4.046-2.962h-5.011l-1.531-4.764-1.555,4.764Z" fill="#fff" stroke-width="0"/>
    <path d="M140,370c-60.642,0-110-49.358-110-110s49.358-110,110-110,110,49.333,110,110-49.331,110-110,110Z" fill="url(#Dégradé_sans_nom-2)" opacity=".15" stroke-width="0"/>
    <path d="M140,156c57.346,0,104,46.654,104,104s-46.654,104-104,104-104-46.654-104-104,46.654-104,104-104M140,150c-60.642,0-110,49.333-110,110s49.358,110,110,110,110-49.358,110-110-49.331-110-110-110h0Z" fill="url(#Dégradé_sans_nom_4)" opacity=".15" stroke-width="0"/>
  </g>
<title>spot usdcad</title></svg>
