<svg width="428" height="352" viewBox="0 0 428 352" fill="none" xmlns="http://www.w3.org/2000/svg">
<circle cx="299" cy="178" r="37" fill="white" stroke="black" stroke-width="2"/>
<path d="M301 191L287 178M287 178L301 165M287 178H428" stroke="black" stroke-width="2"/>
<rect x="168" y="241" width="92" height="110" rx="11" stroke="black" stroke-width="2"/>
<rect x="168" y="253" width="92" height="98" rx="11" stroke="black" stroke-width="2"/>
<rect x="171" y="256" width="86" height="68" rx="10" fill="black"/>
<rect x="172" y="329" width="84" height="18" rx="9" stroke="black" stroke-width="2"/>
<circle cx="214" cy="178" r="37" fill="#9EE970" stroke="black" stroke-width="2"/>
<path d="M201 180L214 166M214 166L227 180M214 166V240" stroke="black" stroke-width="2"/>
<path d="M127 165L141 178M141 178L127 191M141 178C85.9361 178 55.0639 178 0 178" stroke="black" stroke-width="2"/>
<circle cx="129" cy="178" r="38" fill="black"/>
<mask id="mask0_21_94" style="mask-type:alpha" maskUnits="userSpaceOnUse" x="91" y="140" width="76" height="76">
<circle cx="129" cy="178" r="38" fill="black"/>
</mask>
<g mask="url(#mask0_21_94)">
<path d="M125.654 165L141 178M141 178L125.654 191M141 178L0 178" stroke="white" stroke-width="2"/>
</g>
<rect x="312" y="13" width="62" height="88" rx="11" fill="white" stroke="black" stroke-width="2"/>
<rect x="312" y="19" width="62" height="82" rx="11" fill="white" stroke="black" stroke-width="2"/>
<rect x="329" y="66" width="28" height="28" fill="black"/>
<path d="M333 58H353" stroke="black" stroke-width="2"/>
<path d="M338 52H348" stroke="black" stroke-width="2"/>
<circle cx="343" cy="32" r="6" fill="black"/>
<g filter="url(#filter0_d_21_94)">
<mask id="path-19-inside-1_21_94" fill="white">
<path d="M129 52C129 45.3726 134.373 40 141 40H287C293.627 40 299 45.3726 299 52V88C299 94.6274 293.627 100 287 100H141C134.373 100 129 94.6274 129 88V52Z"/>
</mask>
<path d="M129 52C129 45.3726 134.373 40 141 40H287C293.627 40 299 45.3726 299 52V88C299 94.6274 293.627 100 287 100H141C134.373 100 129 94.6274 129 88V52Z" fill="white"/>
<path d="M129 40H299H129ZM299 88C299 97.9411 290.941 106 281 106H147C137.059 106 129 97.9411 129 88C129 91.3137 134.373 94 141 94H287C293.627 94 299 91.3137 299 88ZM129 100V40V100ZM299 40V100V40Z" fill="black" mask="url(#path-19-inside-1_21_94)"/>
</g>
<circle cx="158" cy="67" r="8" fill="black"/>
<circle cx="186" cy="67" r="8" fill="black"/>
<circle cx="214" cy="67" r="7" fill="white" stroke="black" stroke-width="2"/>
<circle cx="242" cy="67" r="7" fill="#ECECEC" stroke="black" stroke-width="2"/>
<circle cx="270" cy="67" r="7" fill="#9EE970" stroke="black" stroke-width="2"/>
<rect x="188" y="1" width="52" height="28" rx="14" fill="white" stroke="black" stroke-width="2"/>
<circle cx="226" cy="15" r="10" fill="#A5A6F5" stroke="black" stroke-width="2"/>
<path d="M224 12V18" stroke="black" stroke-width="2"/>
<path d="M228 12V18" stroke="black" stroke-width="2"/>
<g filter="url(#filter1_d_21_94)">
<mask id="path-30-inside-2_21_94" fill="white">
<path d="M53 22C53 15.3726 58.3726 10 65 10H105C111.627 10 117 15.3726 117 22V88C117 94.6274 111.627 100 105 100H65C58.3726 100 53 94.6274 53 88V22Z"/>
</mask>
<path d="M53 22C53 15.3726 58.3726 10 65 10H105C111.627 10 117 15.3726 117 22V88C117 94.6274 111.627 100 105 100H65C58.3726 100 53 94.6274 53 88V22Z" fill="white"/>
<path d="M53 10H117H53ZM117 88C117 97.9411 108.941 106 99 106H71C61.0589 106 53 97.9411 53 88C53 91.3137 58.3726 94 65 94H105C111.627 94 117 91.3137 117 88ZM53 100V10V100ZM117 10V100V10Z" fill="black" mask="url(#path-30-inside-2_21_94)"/>
</g>
<circle cx="85" cy="80" r="6" fill="black"/>
<path d="M75 54H95" stroke="black" stroke-width="2"/>
<path d="M80 60H90" stroke="black" stroke-width="2"/>
<circle cx="85" cy="32" r="14" fill="black"/>
<defs>
<filter id="filter0_d_21_94" x="127" y="38" width="174" height="64" filterUnits="userSpaceOnUse" color-interpolation-filters="sRGB">
<feFlood flood-opacity="0" result="BackgroundImageFix"/>
<feColorMatrix in="SourceAlpha" type="matrix" values="0 0 0 0 0 0 0 0 0 0 0 0 0 0 0 0 0 0 127 0" result="hardAlpha"/>
<feMorphology radius="2" operator="dilate" in="SourceAlpha" result="effect1_dropShadow_21_94"/>
<feOffset/>
<feComposite in2="hardAlpha" operator="out"/>
<feColorMatrix type="matrix" values="0 0 0 0 0 0 0 0 0 0 0 0 0 0 0 0 0 0 1 0"/>
<feBlend mode="normal" in2="BackgroundImageFix" result="effect1_dropShadow_21_94"/>
<feBlend mode="normal" in="SourceGraphic" in2="effect1_dropShadow_21_94" result="shape"/>
</filter>
<filter id="filter1_d_21_94" x="51" y="8" width="68" height="94" filterUnits="userSpaceOnUse" color-interpolation-filters="sRGB">
<feFlood flood-opacity="0" result="BackgroundImageFix"/>
<feColorMatrix in="SourceAlpha" type="matrix" values="0 0 0 0 0 0 0 0 0 0 0 0 0 0 0 0 0 0 127 0" result="hardAlpha"/>
<feMorphology radius="2" operator="dilate" in="SourceAlpha" result="effect1_dropShadow_21_94"/>
<feOffset/>
<feComposite in2="hardAlpha" operator="out"/>
<feColorMatrix type="matrix" values="0 0 0 0 0 0 0 0 0 0 0 0 0 0 0 0 0 0 1 0"/>
<feBlend mode="normal" in2="BackgroundImageFix" result="effect1_dropShadow_21_94"/>
<feBlend mode="normal" in="SourceGraphic" in2="effect1_dropShadow_21_94" result="shape"/>
</filter>
</defs>
</svg>
